<svg id="Layer_1" data-name="Layer 1" xmlns="http://www.w3.org/2000/svg" xmlns:xlink="http://www.w3.org/1999/xlink" viewBox="0 0 31.32 31.17"><defs><style>.cls-1{fill:none;}.cls-2{fill:#1b1b1b;}.cls-3{clip-path:url(#clip-path);}.cls-4{fill:#ff0006;}</style><clipPath id="clip-path" transform="translate(-0.35 -0.41)"><rect class="cls-1" x="0.31" y="0.42" width="31.38" height="31.17"/></clipPath></defs><g id="surface1"><path class="cls-2" d="M16,1.05l-.74,0-.73.05-.73.09-.72.13-.72.16-.71.2c-.23.07-.47.14-.7.23l-.68.26c-.23.1-.45.19-.67.3a6.77,6.77,0,0,0-.66.33l-.64.36c-.21.13-.42.26-.62.4L7.08,4c-.2.15-.4.3-.58.45l-.56.48c-.18.16-.36.34-.53.51L4.9,6c-.17.18-.33.37-.48.56s-.31.38-.45.58-.29.39-.43.6-.26.41-.39.62-.24.43-.36.64-.23.43-.33.66l-.3.67c-.09.22-.18.45-.26.68s-.16.47-.23.7-.14.47-.2.71-.11.48-.16.72-.09.48-.13.72l-.09.73c0,.24,0,.49-.05.73s0,.49,0,.74,0,.49,0,.73,0,.49.05.74l.09.73c0,.24.08.48.13.72s.1.48.16.72.13.47.2.71.15.46.23.69.17.46.26.69l.3.67c.1.22.22.44.33.66l.36.64.4.62q.2.3.42.6l.45.58.48.55.51.54.53.51c.18.17.37.32.56.48l.58.45a6.42,6.42,0,0,0,.6.42c.2.14.41.27.62.4s.42.25.64.36a6.77,6.77,0,0,0,.66.33c.22.11.44.21.67.3l.68.26c.23.09.47.16.7.23l.71.2.72.16.72.13.73.09.73,0L16,31l.73,0,.74,0,.73-.09.72-.13.72-.16c.23-.06.47-.12.71-.2s.46-.14.69-.23l.69-.26c.23-.1.45-.19.67-.3s.44-.21.66-.33l.64-.36c.21-.13.42-.26.62-.4s.4-.27.6-.42l.58-.45.56-.48.53-.51q.26-.26.51-.54c.17-.18.32-.36.48-.55L28,25l.43-.6.39-.62c.12-.21.25-.43.36-.64s.23-.44.33-.66.21-.45.3-.67.18-.46.26-.69.16-.46.23-.7.14-.47.2-.7.11-.48.16-.72.09-.48.13-.72l.09-.73c0-.25,0-.49.05-.74s0-.49,0-.73,0-.49,0-.74,0-.49-.05-.73l-.09-.73c0-.24-.08-.48-.13-.72s-.1-.48-.16-.72-.12-.48-.2-.71-.14-.47-.23-.7-.17-.46-.26-.68-.19-.45-.3-.68-.21-.44-.33-.65-.24-.43-.36-.64-.26-.42-.39-.62-.28-.41-.43-.6l-.45-.58L27.1,6l-.51-.53-.53-.51c-.19-.17-.37-.33-.56-.48s-.38-.31-.58-.45l-.6-.43-.62-.39-.64-.36c-.22-.11-.44-.23-.66-.33s-.45-.2-.67-.3L21,1.93c-.23-.09-.46-.16-.7-.23l-.7-.2-.72-.16-.73-.13-.73-.09-.73-.05Z" transform="translate(-0.35 -0.41)"/><g class="cls-3"><path class="cls-4" d="M29.38,21.83s0,0,0,0a2.65,2.65,0,0,1-.09-.9,8.51,8.51,0,0,0-.52-2.48,5,5,0,0,0-1.35-2.3,5,5,0,0,0-3.19-.83,3.08,3.08,0,0,0,.61.5,1.49,1.49,0,0,1,.65,1.63,8.59,8.59,0,0,1-.17,1.43,1.51,1.51,0,0,1-.69,1.05.65.65,0,0,1-.21.07l0,0a1.65,1.65,0,0,0,.28-.5,1.59,1.59,0,0,0,.1-.57,2.8,2.8,0,0,0-.08-.58,6,6,0,0,0-.38-1.08c-.15-.35-.31-.7-.44-1a12.28,12.28,0,0,1-.65-2.14,9.91,9.91,0,0,1-.17-2.24,7.52,7.52,0,0,1,.42-2.2,6.83,6.83,0,0,1,1.12-2,6.54,6.54,0,0,0-1.19,1.93,7.39,7.39,0,0,0-.51,2.22,9.24,9.24,0,0,0,.1,2.29,11.26,11.26,0,0,0,.59,2.21c.16.36.34.69.52,1a7.78,7.78,0,0,1,.44,1,1.93,1.93,0,0,1,.06,1.09,1.64,1.64,0,0,1-.28.54,1.39,1.39,0,0,1-.91-.21,1.39,1.39,0,0,1-.37-.86A7.19,7.19,0,0,1,23,17.52a8.35,8.35,0,0,0-.3-3.11A2.79,2.79,0,0,0,22,13.33a9.08,9.08,0,0,0-1.6-.94,11.8,11.8,0,0,1-3.14-2.57,3.94,3.94,0,0,1-1.12-2.75,2.19,2.19,0,0,1,.56-1.22A4,4,0,0,1,19,4.66s-1.53-.89-4,.08a4.22,4.22,0,0,0-2,2,12.2,12.2,0,0,0-1,6.15c0,.94.11,1.86.16,2.8a4.72,4.72,0,0,1-.36,2,3.31,3.31,0,0,0,.07-.55,7.88,7.88,0,0,0,0-1.19c-.1-.79-.24-1.57-.41-2.34s-.36-1.53-.52-2.29a18.36,18.36,0,0,1-.37-2.32,6.64,6.64,0,0,1,0-1.18,3.79,3.79,0,0,1,.27-1.14,3.51,3.51,0,0,0-.31,1.14,7.75,7.75,0,0,0,0,1.18,18.26,18.26,0,0,0,.3,2.34c.14.78.29,1.55.44,2.32A22.72,22.72,0,0,1,11.52,16a8.92,8.92,0,0,1,.08,1.16,4,4,0,0,1-.16,1.13v.05a3.29,3.29,0,0,1-.73.76c-1.17.85-2.44-.14-3-1.23a6.18,6.18,0,0,1-.14-3.85A4.45,4.45,0,0,1,8.89,11.6a9.11,9.11,0,0,0-4.43,4,11.47,11.47,0,0,0-1.28,3,16.59,16.59,0,0,0-.47,2.31c0,.34-.09.69-.11,1.05A14.36,14.36,0,0,1,1.33,16a14.68,14.68,0,0,1,29.36,0,14.36,14.36,0,0,1-1.22,5.82Zm-2,3.4c-1.51.33-2.88-1-3.47-2.29-.07-.17-.27-.54-.49-1a11.09,11.09,0,0,1-.08,2.7A3.81,3.81,0,0,1,22.72,26a1.42,1.42,0,0,1-.71.47c-.38-.08-.41-.78-.4-1.18a5.12,5.12,0,0,0,.14-.68,22.15,22.15,0,0,0-.06-2.45c0-.41,0-.81,0-1.22a6.05,6.05,0,0,1,.14-1.2,6,6,0,0,0-.22,1.2c0,.4,0,.81,0,1.22a21.57,21.57,0,0,1-.09,2.42,4.26,4.26,0,0,1-.17,1.18,2.26,2.26,0,0,1-.38.74c-.41-.16-.53-.57-.53-1.12a12.33,12.33,0,0,1,.46-2.68A6.33,6.33,0,0,0,21,20.15a5.62,5.62,0,0,0-1.51-2.71c-1.22-1.37-3.1-1.8-3.36-5.4a10,10,0,0,0-.81,5.35,23.88,23.88,0,0,1,.35,3.86A4.25,4.25,0,0,1,14.47,24l.08-.14a2.65,2.65,0,0,0,.17-1,5.58,5.58,0,0,0-.12-1q-.06-.25-.12-.48l-.07-.24-.06-.23c-.07-.32-.15-.64-.21-1A12.71,12.71,0,0,1,13.89,18,9.11,9.11,0,0,1,14,16a14.28,14.28,0,0,1,.41-1.92A14.47,14.47,0,0,0,13.9,16a10,10,0,0,0-.17,2,13,13,0,0,0,.18,2c.05.33.11.65.17,1l.05.25.06.24c0,.16.07.32.1.47a6.15,6.15,0,0,1,.19,1,2.1,2.1,0,0,1-.09.93,1.55,1.55,0,0,1-.55.76A2.86,2.86,0,0,1,13,25l.3-.09a4.88,4.88,0,0,1-2.85.59A3.64,3.64,0,0,1,8,24.3c-.63-.75-.22-3.29-.12-3.66a7.28,7.28,0,0,0-1.72,3.83,15.76,15.76,0,0,0,0,2.38,15,15,0,0,1-2.13-2.37,8,8,0,0,0,.11-1c0-.63,0-1.25.07-1.87a20.55,20.55,0,0,1,.33-3.51,9.27,9.27,0,0,1,3-5.26,6.71,6.71,0,0,0-.75,2.56,4.7,4.7,0,0,0,1,3.67,2.4,2.4,0,0,0,3.29.56,4.61,4.61,0,0,0,1.71-3.39,10.46,10.46,0,0,0,0-1.48c0-.49-.05-1-.07-1.45a23.93,23.93,0,0,1,.05-3.17c.16-1.91.76-4,2.61-4.92a5.76,5.76,0,0,1,1.28-.4,3.55,3.55,0,0,1,1.25-.1,5,5,0,0,0-1.36.79,2.46,2.46,0,0,0-.75,1.24,3.83,3.83,0,0,0,.8,3,11.17,11.17,0,0,0,3.13,2.92c.32.21.65.41,1,.59a5.08,5.08,0,0,1,.81.48,2.17,2.17,0,0,1,.65,1.16A12.6,12.6,0,0,1,22.26,18a2.87,2.87,0,0,0,.81,2.4,2,2,0,0,0,1.45.28,1.71,1.71,0,0,0,1.16-.85,4,4,0,0,0,.32-3,2.64,2.64,0,0,0-.71-1.09,2.81,2.81,0,0,1,1.95,1.13,7.1,7.1,0,0,1,1,2.58,4.76,4.76,0,0,1,.19,1.15,8.74,8.74,0,0,0,.08,1.14,1,1,0,0,0,.57.8h0a14.72,14.72,0,0,1-1.75,2.66Zm-5.55,4.18a2.54,2.54,0,0,1-1-.25,5.93,5.93,0,0,1-1.94-1.65,6,6,0,0,1-1.18-2.31c-.17-.7-.67-1.32.92-2.91a7.15,7.15,0,0,0-2.39,3A5.2,5.2,0,0,1,15,28a3.07,3.07,0,0,1-2.26.79,1.25,1.25,0,0,1-1.07-1.66c.07-.23.13-.47.18-.71a4.16,4.16,0,0,0-1.13,2.21A2.8,2.8,0,0,0,11,29.72a14.57,14.57,0,0,1-4.14-2.33c0-.91,0-1.82.06-2.73a9.75,9.75,0,0,1,.24-1.5,3,3,0,0,0,.51,1.28,3.93,3.93,0,0,0,2.55,1.45A5.26,5.26,0,0,0,16,22.38a10.2,10.2,0,0,0,0-4.19,11.21,11.21,0,0,1,.12-4.51,4.49,4.49,0,0,0,.79,1.77c.63.87,1.44,1.57,2.15,2.37a5,5,0,0,1,1.41,2.82,8.25,8.25,0,0,1-.36,2.56c-.27,1.2-.95,4.13,1.21,3.9a2.88,2.88,0,0,0,1.43-.49,2.64,2.64,0,0,0,.77-1.17,7.36,7.36,0,0,0,.38-2,4.22,4.22,0,0,0,3.06,2.39,14.89,14.89,0,0,1-5.08,3.63Zm-4,1.08a2,2,0,0,1-.22-.34,2.39,2.39,0,0,1-.22-.58,4.92,4.92,0,0,1-.32-1.24c-.07-.44-.11-.88-.17-1.31,0,.44,0,.88,0,1.32a5,5,0,0,0,.15,1.28,4.69,4.69,0,0,1-.22,1l-.83,0A14.82,14.82,0,0,1,11.67,30a3.1,3.1,0,0,1-.24-2.28,1.4,1.4,0,0,0,.85,1.39,3,3,0,0,0,2.47-.36,3.71,3.71,0,0,0,1.69-2.48A8,8,0,0,1,17.22,24a5.11,5.11,0,0,0,1.28,3.81,6.41,6.41,0,0,0,2.18,1.83l.27.11a15,15,0,0,1-3.11.74ZM27.08,5A15.7,15.7,0,0,0,4.94,5a15.52,15.52,0,0,0-.08,22l.08.08a15.72,15.72,0,0,0,22.14,0,15.54,15.54,0,0,0,.08-22L27.08,5" transform="translate(-0.35 -0.41)"/></g></g></svg>